<svg version="1.1" id="Layer_1" xmlns="http://www.w3.org/2000/svg" xmlns:xlink="http://www.w3.org/1999/xlink" x="0px" y="0px"
	 width="100%" viewBox="0 0 500 500" enable-background="new 0 0 500 500" xml:space="preserve">
<path fill="#010101" opacity="1.000000" stroke="none" 
	d="
M345.000000,501.000000 
	C230.000031,501.000000 115.500053,501.000000 1.000062,501.000000 
	C1.000041,334.333405 1.000041,167.666794 1.000021,1.000151 
	C167.666550,1.000101 334.333099,1.000101 500.999756,1.000050 
	C500.999817,167.666519 500.999817,334.333038 500.999908,500.999786 
	C449.166656,501.000000 397.333344,501.000000 345.000000,501.000000 
M223.567398,237.457199 
	C218.650360,243.587708 212.120346,240.243164 206.022446,241.166946 
	C206.022446,228.308899 206.087967,216.200882 206.006561,204.093857 
	C205.894028,187.356049 205.486160,170.617371 205.633057,153.882812 
	C205.667099,150.004578 204.588715,147.716354 200.662048,145.737869 
	C200.662048,179.710434 200.662048,213.195938 200.662048,246.438141 
	C206.160629,246.438141 211.312500,246.260559 216.440140,246.535217 
	C218.216324,246.630341 220.360886,247.409637 221.604553,248.625702 
	C228.375931,255.246964 234.877045,262.143433 241.556961,268.859863 
	C245.054443,272.376465 248.727676,275.718292 252.321533,279.139038 
	C252.709442,279.005280 253.097366,278.871521 253.485275,278.737762 
	C250.643341,269.553040 255.237747,263.648041 261.549316,258.327454 
	C264.827606,255.563873 267.510620,252.068100 270.895935,249.467194 
	C272.938843,247.897675 275.772675,246.722916 278.322235,246.571976 
	C284.792175,246.188919 291.309357,246.650482 297.790497,246.372955 
	C299.195221,246.312805 301.667023,244.621979 301.712189,243.596924 
	C302.047485,235.992310 301.893951,228.366135 301.893951,220.517883 
	C299.308716,220.306580 297.096008,220.125717 294.567780,219.919067 
	C294.567780,203.809509 294.567780,188.073578 294.567780,172.083817 
	C290.231140,172.083817 286.237946,172.279221 282.273743,172.024246 
	C278.879639,171.805954 278.025543,173.158295 278.080933,176.359192 
	C278.253815,186.353607 278.146667,196.352875 278.147766,206.350250 
	C278.148193,210.228668 278.147858,214.107101 278.147858,217.985519 
	C277.728760,218.170654 277.309662,218.355789 276.890564,218.540924 
	C257.993225,199.766037 239.095886,180.991135 220.053986,162.072617 
	C220.053986,186.637711 220.053986,211.163544 220.053986,235.781982 
	C221.734589,235.930740 222.877167,236.031860 223.902084,236.484344 
	C223.902084,236.484344 223.958664,236.850540 223.567398,237.457199 
M193.006485,252.339172 
	C193.006485,214.395905 193.006485,176.452652 193.006485,138.326752 
	C200.074509,138.326752 206.393539,138.505783 212.692352,138.227371 
	C214.829269,138.132919 217.462372,137.456055 218.924667,136.057922 
	C223.886902,131.313522 228.426956,126.127571 232.870056,121.385864 
	C215.087524,121.385864 196.729828,121.385864 178.269562,121.385864 
	C178.269562,171.486557 178.269562,221.197296 178.269562,270.751923 
	C195.680634,270.751923 212.840698,270.751923 230.000763,270.751923 
	C230.305176,270.287445 230.609589,269.822998 230.914001,269.358521 
	C226.602829,265.318756 222.460220,261.073425 217.901703,257.335266 
	C215.937057,255.724197 213.182709,254.538879 210.662460,254.250824 
	C204.833588,253.584641 198.928650,253.584015 193.006485,252.339172 
M104.499268,379.238434 
	C209.280075,379.246216 314.060883,379.258789 418.841705,379.223938 
	C420.748932,379.223297 423.833466,380.289001 423.498932,376.746277 
	C423.414032,375.846924 420.650208,374.539581 419.113861,374.534821 
	C379.698486,374.412201 340.282654,374.432922 300.866882,374.438599 
	C237.805359,374.447632 174.743820,374.464172 111.682289,374.476593 
	C100.251663,374.478851 88.821037,374.476929 77.525215,374.476929 
	C76.311180,378.405731 77.626816,379.451416 81.012192,379.360138 
	C88.503525,379.158112 96.003075,379.260376 104.499268,379.238434 
M274.595581,143.905945 
	C267.775909,136.921295 261.020630,129.871674 254.086456,123.002602 
	C252.557678,121.488167 251.021790,118.299622 248.033142,121.111450 
	C239.402145,129.231766 230.820496,137.404541 222.224243,145.552170 
	C233.171295,156.070206 242.994827,165.508743 251.778152,173.947845 
	C250.704788,178.277985 249.819931,181.847672 248.935089,185.417358 
	C249.405396,185.611099 249.875717,185.804840 250.346039,185.998566 
	C250.957886,185.610229 251.662292,185.316071 252.167679,184.819427 
	C259.507263,177.606873 266.842133,170.389221 274.131226,163.125717 
	C278.463379,158.808777 283.001038,155.471420 289.761078,156.612350 
	C293.296753,157.209076 297.016083,156.717606 300.868469,156.717606 
	C301.137634,154.844391 301.366211,153.253815 301.694580,150.968811 
	C298.663818,150.968811 296.011078,150.768555 293.398376,151.007233 
	C286.234100,151.661697 279.553192,151.197815 274.595581,143.905945 
M321.984894,241.501053 
	C321.985229,237.670776 322.050903,233.838943 321.960114,230.010834 
	C321.909637,227.882233 322.404846,225.032745 321.261078,223.763916 
	C316.938782,218.969055 312.046173,214.688293 306.995758,209.860229 
	C306.995758,211.581573 306.995819,213.165543 306.995758,214.749496 
	C306.995361,225.407623 306.878571,236.067825 307.069580,246.722519 
	C307.122894,249.696625 306.100006,251.529312 303.904205,253.416351 
	C298.066956,258.432800 292.482941,263.743835 286.260712,269.428802 
	C298.660553,269.428802 310.229950,269.428802 321.985321,269.428802 
	C321.985321,260.483063 321.985321,251.491867 321.984894,241.501053 
M313.817078,131.300568 
	C307.663177,135.532852 306.566345,141.474319 306.850861,148.595901 
	C307.362152,161.394592 306.996277,174.228333 306.996857,187.047424 
	C306.996948,189.241119 306.996857,191.434814 306.996857,194.805054 
	C311.814667,189.960953 315.964203,186.142960 319.637115,181.911331 
	C320.996368,180.345306 321.861847,177.814087 321.885620,175.710983 
	C322.066406,159.730804 321.990326,143.747635 321.963745,127.765450 
	C321.962006,126.719376 321.708679,125.673714 321.572388,124.627861 
	C321.129059,124.345581 320.685760,124.063301 320.242432,123.781029 
	C318.298767,126.146240 316.355072,128.511444 313.817078,131.300568 
M332.163483,338.574799 
	C332.163483,341.371979 332.163483,344.169128 332.163483,346.966309 
	C328.072876,342.131927 325.054199,337.224548 321.788666,332.487366 
	C321.082672,331.463165 319.488434,331.051178 318.303375,330.357208 
	C317.749115,331.572083 316.779236,332.763885 316.710327,334.005676 
	C316.352600,340.452454 316.302948,346.915833 315.987946,353.365723 
	C315.793396,357.349548 317.534668,358.000763 321.522461,356.305237 
	C321.522461,351.634918 321.522461,346.694977 321.522461,341.755035 
	C325.092834,345.580048 328.002075,349.388428 330.028900,353.619537 
	C331.661560,357.027893 333.476440,358.143585 336.596313,356.737335 
	C336.596313,347.841034 336.596313,339.130890 336.596313,330.299713 
	C329.863678,330.057617 332.984497,334.940948 332.163483,338.574799 
M267.935547,355.630676 
	C267.662872,352.414886 267.390198,349.199127 267.099915,345.775543 
	C271.011780,345.775543 274.217926,345.775543 277.778076,345.775543 
	C277.778076,349.751831 277.778076,353.346313 277.778076,356.940826 
	C278.262817,357.234619 278.747559,357.528381 279.232300,357.822174 
	C280.233795,356.548035 282.044006,355.309326 282.101624,353.993866 
	C282.407196,347.017548 282.373260,340.019043 282.173431,333.036346 
	C282.145905,332.074860 280.538727,331.158600 279.662842,330.221405 
	C278.961639,331.114532 277.759521,331.953369 277.655701,332.911285 
	C277.374390,335.506744 277.559265,338.152771 277.559265,341.034302 
	C273.931946,341.034302 270.730133,341.034302 267.271912,341.034302 
	C267.271912,337.551117 267.271912,334.425018 267.271912,330.820374 
	C265.606079,330.937622 264.231354,331.034332 262.807617,331.134521 
	C262.807617,339.910950 262.807617,348.347870 262.807617,357.472687 
	C264.638275,357.079773 266.156952,356.753815 267.935547,355.630676 
M108.647591,345.434418 
	C110.390968,345.514435 112.134346,345.594452 114.127060,345.685913 
	C114.127060,349.720459 114.127060,353.316284 114.127060,356.912109 
	C114.502869,357.236755 114.878670,357.561401 115.254478,357.886017 
	C116.488129,356.769379 118.733955,355.700806 118.789688,354.528198 
	C119.128403,347.400635 119.069565,340.246399 118.859573,333.109436 
	C118.829948,332.102722 117.249565,331.141663 116.386986,330.159454 
	C115.397011,331.101685 113.736938,331.929260 113.552170,333.009216 
	C113.126312,335.498383 113.417053,338.110138 113.417053,341.006683 
	C110.043861,341.006683 107.291473,341.006683 104.526520,341.006683 
	C104.526520,337.912781 104.526520,334.849091 104.526520,331.708099 
	C100.481346,329.668762 99.569664,329.760651 99.529198,332.503052 
	C99.410316,340.559021 99.486839,348.617859 99.486839,356.966980 
	C100.833565,356.966980 102.243744,356.966980 103.975952,356.966980 
	C103.975952,354.359497 103.525879,351.779053 104.133202,349.477661 
	C104.542343,347.927307 106.444969,346.771027 108.647591,345.434418 
M244.345383,356.579865 
	C248.224289,356.432861 253.127426,357.734741 254.780426,353.052307 
	C255.804749,350.150726 254.572449,346.452454 254.353088,343.111816 
	C256.283722,337.183929 255.557953,332.476868 250.976074,331.234314 
	C248.612671,330.593384 246.103241,330.480560 243.655228,330.164398 
	C239.599319,329.640533 237.406754,330.784424 237.868561,335.529633 
	C238.286255,339.821747 237.957504,344.186554 237.957733,348.519287 
	C237.957886,351.378967 237.957764,354.238678 237.957764,357.349426 
	C240.508957,356.995575 241.959930,356.794342 244.345383,356.579865 
M290.262848,128.727737 
	C292.787109,126.359619 295.311340,123.991501 298.286774,121.200134 
	C286.300751,121.200134 275.182373,121.200134 263.751953,121.200134 
	C269.580994,127.360802 274.899506,132.981903 280.619598,139.027405 
	C283.887390,135.550400 286.841583,132.407074 290.262848,128.727737 
M286.401459,250.831680 
	C284.564209,248.391403 282.873718,248.080139 280.420044,250.421768 
	C273.923248,256.621857 267.180939,262.564667 260.390991,268.742065 
	C271.377899,270.119019 281.746918,270.591888 288.720398,259.944427 
	C289.668823,258.496368 291.453735,257.596130 292.684235,256.580200 
	C290.836151,254.884201 288.898560,253.106064 286.401459,250.831680 
M395.067230,356.048767 
	C398.137238,358.316498 399.905731,357.717041 400.014343,353.735901 
	C400.083374,351.205505 400.027222,348.671722 400.027222,346.139435 
	C402.641693,348.174896 404.255127,350.536438 405.973206,352.819183 
	C409.351135,357.307281 409.375244,357.289154 413.389191,356.269989 
	C411.368958,352.841339 409.403687,349.505951 407.443817,346.179688 
	C408.482483,345.438507 409.549194,345.090332 409.750916,344.463715 
	C410.761353,341.324921 412.548553,337.933472 412.022400,334.996307 
	C411.719940,333.307587 407.600769,331.332306 405.096771,331.180267 
	C395.528595,330.599335 395.518005,330.856171 395.277527,340.714050 
	C395.249268,341.872986 395.088318,343.028687 395.059753,344.187622 
	C394.968536,347.891632 394.910675,351.596405 395.067230,356.048767 
M215.909073,353.360321 
	C219.690506,348.012360 220.420166,339.695129 217.024994,335.150848 
	C212.466629,329.049683 205.605331,331.121216 199.522339,330.158600 
	C199.522339,339.314240 199.522339,347.839447 199.522339,357.843964 
	C205.377075,356.397888 210.389359,355.159882 215.909073,353.360321 
M149.997055,353.966614 
	C150.769363,355.064331 151.541656,356.162048 152.313965,357.259766 
	C153.136597,356.274719 154.524673,355.365631 154.669250,354.289490 
	C155.016968,351.701447 154.781845,349.035065 154.781845,345.041138 
	C156.760330,346.561035 158.151886,347.201263 158.885818,348.286316 
	C160.263977,350.323853 161.331924,352.584961 162.400665,354.814545 
	C163.774765,357.681213 165.735260,357.874451 168.616913,356.530396 
	C166.468018,352.856842 164.517075,349.521698 162.449112,345.986511 
	C163.151138,345.471863 163.535751,345.156860 163.951462,344.890381 
	C167.458191,342.642487 168.619858,339.578766 167.426178,335.538025 
	C166.157990,331.245056 162.906418,330.857391 159.193268,330.936249 
	C157.787323,330.966125 156.372665,330.175842 154.954987,330.150543 
	C152.321838,330.103546 149.764984,329.664612 150.135757,334.189545 
	C150.647766,340.437805 150.095734,346.773285 149.997055,353.966614 
M343.845001,354.888458 
	C344.243652,355.652863 344.684174,357.098572 345.034515,357.077026 
	C348.832581,356.843567 352.702393,356.746948 356.382507,355.885986 
	C360.992279,354.807617 364.224640,349.641968 364.242065,344.409332 
	C364.264252,337.752014 361.430725,332.309357 356.503601,331.405182 
	C352.547974,330.679260 348.352905,331.258362 343.989258,331.258362 
	C343.989258,339.063416 343.989258,346.535950 343.845001,354.888458 
M294.553497,351.386017 
	C295.378632,351.402710 296.235168,351.572357 297.023560,351.410278 
	C300.967712,350.599426 304.070679,350.923889 305.179230,355.766754 
	C305.369995,356.600189 307.778412,356.925964 310.160065,357.890106 
	C306.983856,348.349579 304.337341,340.240753 301.524811,332.189972 
	C301.232727,331.354004 299.671814,330.158630 299.190918,330.351990 
	C298.055084,330.808624 296.762421,331.823853 296.328735,332.926178 
	C293.220337,340.827606 290.310913,348.807312 287.339874,356.758026 
	C292.229797,358.903320 292.773865,354.957428 294.553497,351.386017 
M184.645782,331.014465 
	C183.300049,331.261902 181.018661,331.138336 180.751068,331.813263 
	C177.511627,339.983459 174.569229,348.271423 171.549545,356.528748 
	C171.918152,356.956451 172.286743,357.384155 172.655350,357.811859 
	C174.169968,356.719238 176.646378,355.877014 177.008896,354.484467 
	C177.898682,351.066589 180.110168,351.189087 182.650299,351.155640 
	C185.269745,351.121124 187.559448,351.290680 188.291656,354.540436 
	C189.054459,357.925934 191.016937,358.122620 193.421555,356.453522 
	C190.655273,347.900116 187.986526,339.648315 184.645782,331.014465 
M369.028870,357.093475 
	C373.851624,358.186005 373.427155,353.857300 374.625031,351.471191 
	C375.686157,351.401520 376.514557,351.268188 377.334808,351.307007 
	C380.720062,351.467346 384.940674,350.066956 385.302185,355.875977 
	C385.337891,356.450165 387.966644,356.863037 390.534546,357.741821 
	C387.121307,348.227081 384.270325,340.184479 381.310669,332.182007 
	C381.026581,331.413910 379.926575,330.281921 379.449554,330.390594 
	C378.483643,330.610687 377.201385,331.391418 376.893036,332.245514 
	C373.953979,340.386688 371.191681,348.591675 369.028870,357.093475 
M131.042053,332.528900 
	C128.102753,340.588501 125.163429,348.648102 122.211136,356.743317 
	C126.110481,358.180450 127.224213,356.284180 128.059494,353.613708 
	C129.149292,350.129578 132.296249,350.785828 134.692291,351.116913 
	C136.220032,351.327942 138.518814,352.843842 138.770447,354.112244 
	C139.519913,357.890106 141.556778,357.355957 144.258560,356.818451 
	C141.429123,348.528809 138.749786,340.582611 135.996323,332.662201 
	C134.983597,329.749084 133.429993,328.938934 131.042053,332.528900 
M82.649200,339.969482 
	C82.321526,338.491486 81.993851,337.013519 81.666176,335.535522 
	C84.893974,335.164917 88.121780,334.794312 91.830582,334.368500 
	C91.917793,334.164612 92.325104,333.212402 93.037766,331.546356 
	C89.614395,331.019165 86.887863,330.195374 84.189934,330.280334 
	C80.321335,330.402161 76.824066,332.078369 76.397636,336.385040 
	C75.975578,340.647583 78.520126,343.465271 82.534622,344.859497 
	C83.775330,345.290405 85.230240,345.368225 86.255676,346.083069 
	C87.338982,346.838257 88.620865,348.120483 88.697235,349.248230 
	C88.757034,350.131104 87.195267,351.823029 86.203598,351.946350 
	C83.269852,352.311188 80.261589,352.076813 76.281059,352.076813 
	C76.862740,353.499207 77.182297,355.606079 77.869087,355.733521 
	C81.062103,356.325897 84.690720,357.317078 87.513260,356.321747 
	C89.926643,355.470673 92.267960,352.398590 93.174828,349.797607 
	C94.333145,346.475464 91.949654,343.788086 88.843719,342.326599 
	C87.075485,341.494537 85.096947,341.109406 82.649200,339.969482 
M424.507965,331.504120 
	C422.319977,329.218201 420.325531,329.672943 420.210968,332.691467 
	C419.901855,340.835358 420.105194,348.998718 420.105194,357.010132 
	C423.847809,357.797974 425.105499,356.597321 424.998596,353.198822 
	C424.779510,346.234619 424.894318,339.259888 424.507965,331.504120 
z"/>
<path fill="#F2F2F2" opacity="1.000000" stroke="none" 
	d="
M224.019745,236.132996 
	C222.877167,236.031860 221.734589,235.930740 220.053986,235.781982 
	C220.053986,211.163544 220.053986,186.637711 220.053986,162.072617 
	C239.095886,180.991135 257.993225,199.766037 276.890564,218.540924 
	C277.309662,218.355789 277.728760,218.170654 278.147858,217.985519 
	C278.147858,214.107101 278.148193,210.228668 278.147766,206.350250 
	C278.146667,196.352875 278.253815,186.353607 278.080933,176.359192 
	C278.025543,173.158295 278.879639,171.805954 282.273743,172.024246 
	C286.237946,172.279221 290.231140,172.083817 294.567780,172.083817 
	C294.567780,188.073578 294.567780,203.809509 294.567780,219.919067 
	C297.096008,220.125717 299.308716,220.306580 301.893951,220.517883 
	C301.893951,228.366135 302.047485,235.992310 301.712189,243.596924 
	C301.667023,244.621979 299.195221,246.312805 297.790497,246.372955 
	C291.309357,246.650482 284.792175,246.188919 278.322235,246.571976 
	C275.772675,246.722916 272.938843,247.897675 270.895935,249.467194 
	C267.510620,252.068100 264.827606,255.563873 261.549316,258.327454 
	C255.237747,263.648041 250.643341,269.553040 253.485275,278.737762 
	C253.097366,278.871521 252.709442,279.005280 252.321533,279.139038 
	C248.727676,275.718292 245.054443,272.376465 241.556961,268.859863 
	C234.877045,262.143433 228.375931,255.246964 221.604553,248.625702 
	C220.360886,247.409637 218.216324,246.630341 216.440140,246.535217 
	C211.312500,246.260559 206.160629,246.438141 200.662048,246.438141 
	C200.662048,213.195938 200.662048,179.710434 200.662048,145.737869 
	C204.588715,147.716354 205.667099,150.004578 205.633057,153.882812 
	C205.486160,170.617371 205.894028,187.356049 206.006561,204.093857 
	C206.087967,216.200882 206.022446,228.308899 206.022446,241.166946 
	C212.120346,240.243164 218.650360,243.587708 224.089676,237.071915 
	C227.192810,234.190094 229.773666,231.693573 232.677368,229.077072 
	C233.783020,227.041779 235.211731,225.137070 235.243362,223.209412 
	C235.442444,211.077362 235.445282,198.937927 235.202805,186.807144 
	C235.165085,184.920166 233.538513,183.064957 232.646683,181.195068 
	C232.345551,181.413055 232.044434,181.631042 231.743317,181.849030 
	C231.743317,197.611359 231.743317,213.373688 231.256439,229.171295 
	C228.176254,229.827377 227.014542,228.777649 227.053894,226.142075 
	C227.113464,222.151428 227.110855,218.159653 227.109985,214.168350 
	C227.107376,202.098495 227.155228,190.027847 226.998886,177.959885 
	C226.980698,176.555893 225.806458,175.166885 225.168167,173.770935 
	C224.785355,173.938034 224.402557,174.105133 224.019745,174.272247 
	C224.019745,194.892487 224.019745,215.512741 224.019745,236.132996 
M256.744232,205.765991 
	C251.470154,200.407471 246.196060,195.048935 240.441238,189.201965 
	C240.441238,200.333115 240.441238,210.453003 240.441238,220.572891 
	C240.991119,220.969696 241.540985,221.366486 242.090866,221.763275 
	C244.500732,218.318054 246.910614,214.872833 249.977524,210.488297 
	C252.119644,213.298538 253.027390,214.720520 254.158264,215.934677 
	C260.482880,222.725021 266.737000,229.589493 273.294342,236.149597 
	C275.366364,238.222458 278.127228,239.931763 280.890991,240.886139 
	C283.133667,241.660553 285.865143,240.896393 288.357910,241.092743 
	C295.780670,241.677414 296.325378,241.250015 296.414825,233.877075 
	C296.446350,231.281769 296.419861,228.685745 296.419861,225.721542 
	C290.874908,225.721542 285.727600,226.018448 280.641418,225.589691 
	C278.285034,225.391052 275.569916,224.298859 273.843994,222.712463 
	C268.115387,217.446915 262.762177,211.772919 256.744232,205.765991 
M261.930206,232.575363 
	C257.987976,228.422440 254.045776,224.269516 250.597046,220.636444 
	C244.647522,226.292267 239.177231,231.492538 233.767715,236.635025 
	C240.571609,243.745575 247.257172,250.732437 254.346344,258.141113 
	C259.920013,252.455338 265.290222,246.977112 271.174194,240.974792 
	C268.063812,238.125717 265.276459,235.572479 261.930206,232.575363 
M230.107773,249.312454 
	C235.979370,255.143356 241.850983,260.974274 247.722580,266.805176 
	C248.204926,266.511597 248.687286,266.218018 249.169632,265.924408 
	C248.935867,263.932159 249.454910,261.198944 248.343903,260.070099 
	C242.013504,253.638351 235.294449,247.589111 228.543564,241.256042 
	C227.848236,241.898056 226.552414,243.094498 224.901733,244.618591 
	C226.605743,246.152878 228.087280,247.486862 230.107773,249.312454 
z"/>
<path fill="#FCFCFC" opacity="1.000000" stroke="none" 
	d="
M193.030518,252.826324 
	C198.928650,253.584015 204.833588,253.584641 210.662460,254.250824 
	C213.182709,254.538879 215.937057,255.724197 217.901703,257.335266 
	C222.460220,261.073425 226.602829,265.318756 230.914001,269.358521 
	C230.609589,269.822998 230.305176,270.287445 230.000763,270.751923 
	C212.840698,270.751923 195.680634,270.751923 178.269562,270.751923 
	C178.269562,221.197296 178.269562,171.486557 178.269562,121.385864 
	C196.729828,121.385864 215.087524,121.385864 232.870056,121.385864 
	C228.426956,126.127571 223.886902,131.313522 218.924667,136.057922 
	C217.462372,137.456055 214.829269,138.132919 212.692352,138.227371 
	C206.393539,138.505783 200.074509,138.326752 193.006485,138.326752 
	C193.006485,176.452652 193.006485,214.395905 193.030518,252.826324 
z"/>
<path fill="#F0F0F0" opacity="1.000000" stroke="none" 
	d="
M103.999268,379.238464 
	C96.003075,379.260376 88.503525,379.158112 81.012192,379.360138 
	C77.626816,379.451416 76.311180,378.405731 77.525215,374.476929 
	C88.821037,374.476929 100.251663,374.478851 111.682289,374.476593 
	C174.743820,374.464172 237.805359,374.447632 300.866882,374.438599 
	C340.282654,374.432922 379.698486,374.412201 419.113861,374.534821 
	C420.650208,374.539581 423.414032,375.846924 423.498932,376.746277 
	C423.833466,380.289001 420.748932,379.223297 418.841705,379.223938 
	C314.060883,379.258789 209.280075,379.246216 103.999268,379.238464 
z"/>
<path fill="#EDEDED" opacity="1.000000" stroke="none" 
	d="
M274.848175,144.162201 
	C279.553192,151.197815 286.234100,151.661697 293.398376,151.007233 
	C296.011078,150.768555 298.663818,150.968811 301.694580,150.968811 
	C301.366211,153.253815 301.137634,154.844391 300.868469,156.717606 
	C297.016083,156.717606 293.296753,157.209076 289.761078,156.612350 
	C283.001038,155.471420 278.463379,158.808777 274.131226,163.125717 
	C266.842133,170.389221 259.507263,177.606873 252.167679,184.819427 
	C251.662292,185.316071 250.957886,185.610229 250.346039,185.998566 
	C249.875717,185.804840 249.405396,185.611099 248.935089,185.417358 
	C249.819931,181.847672 250.704788,178.277985 251.778152,173.947845 
	C242.994827,165.508743 233.171295,156.070206 222.224243,145.552170 
	C230.820496,137.404541 239.402145,129.231766 248.033142,121.111450 
	C251.021790,118.299622 252.557678,121.488167 254.086456,123.002602 
	C261.020630,129.871674 267.775909,136.921295 274.848175,144.162201 
M258.934143,166.470428 
	C257.959351,167.498459 256.984589,168.526489 256.009827,169.554520 
	C256.367126,169.916031 256.724426,170.277527 257.081726,170.639038 
	C258.249023,169.596039 259.416351,168.553040 261.044403,167.184982 
	C261.184296,166.838791 261.324219,166.492599 262.128204,166.152664 
	C266.706848,161.776840 271.285492,157.401016 275.000885,153.850220 
	C266.380280,144.972595 258.105225,136.450821 249.952347,128.054886 
	C243.748352,134.017746 237.528732,139.995605 232.223282,145.094849 
	C238.932571,152.132172 245.128540,158.631088 252.794144,166.671509 
	C256.611145,162.232986 260.500702,157.710052 264.368103,153.212906 
	C266.301727,159.003021 263.515472,162.698120 259.700928,166.049622 
	C259.700928,166.049622 259.638733,166.038803 258.934143,166.470428 
z"/>
<path fill="#FBFBFB" opacity="1.000000" stroke="none" 
	d="
M321.985107,242.000854 
	C321.985321,251.491867 321.985321,260.483063 321.985321,269.428802 
	C310.229950,269.428802 298.660553,269.428802 286.260712,269.428802 
	C292.482941,263.743835 298.066956,258.432800 303.904205,253.416351 
	C306.100006,251.529312 307.122894,249.696625 307.069580,246.722519 
	C306.878571,236.067825 306.995361,225.407623 306.995758,214.749496 
	C306.995819,213.165543 306.995758,211.581573 306.995758,209.860229 
	C312.046173,214.688293 316.938782,218.969055 321.261078,223.763916 
	C322.404846,225.032745 321.909637,227.882233 321.960114,230.010834 
	C322.050903,233.838943 321.985229,237.670776 321.985107,242.000854 
z"/>
<path fill="#FBFBFB" opacity="1.000000" stroke="none" 
	d="
M314.114227,131.088623 
	C316.355072,128.511444 318.298767,126.146240 320.242432,123.781029 
	C320.685760,124.063301 321.129059,124.345581 321.572388,124.627861 
	C321.708679,125.673714 321.962006,126.719376 321.963745,127.765450 
	C321.990326,143.747635 322.066406,159.730804 321.885620,175.710983 
	C321.861847,177.814087 320.996368,180.345306 319.637115,181.911331 
	C315.964203,186.142960 311.814667,189.960953 306.996857,194.805054 
	C306.996857,191.434814 306.996948,189.241119 306.996857,187.047424 
	C306.996277,174.228333 307.362152,161.394592 306.850861,148.595901 
	C306.566345,141.474319 307.663177,135.532852 314.114227,131.088623 
z"/>
<path fill="#F0F0F0" opacity="1.000000" stroke="none" 
	d="
M332.173645,338.107208 
	C332.984497,334.940948 329.863678,330.057617 336.596313,330.299713 
	C336.596313,339.130890 336.596313,347.841034 336.596313,356.737335 
	C333.476440,358.143585 331.661560,357.027893 330.028900,353.619537 
	C328.002075,349.388428 325.092834,345.580048 321.522461,341.755035 
	C321.522461,346.694977 321.522461,351.634918 321.522461,356.305237 
	C317.534668,358.000763 315.793396,357.349548 315.987946,353.365723 
	C316.302948,346.915833 316.352600,340.452454 316.710327,334.005676 
	C316.779236,332.763885 317.749115,331.572083 318.303345,330.357208 
	C319.488434,331.051178 321.082672,331.463165 321.788666,332.487366 
	C325.054199,337.224548 328.072876,342.131927 332.163483,346.966309 
	C332.163483,344.169128 332.163483,341.371979 332.173645,338.107208 
z"/>
<path fill="#F2F2F2" opacity="1.000000" stroke="none" 
	d="
M267.805603,356.029297 
	C266.156952,356.753815 264.638275,357.079773 262.807617,357.472687 
	C262.807617,348.347870 262.807617,339.910950 262.807617,331.134521 
	C264.231354,331.034332 265.606079,330.937622 267.271912,330.820374 
	C267.271912,334.425018 267.271912,337.551117 267.271912,341.034302 
	C270.730133,341.034302 273.931946,341.034302 277.559265,341.034302 
	C277.559265,338.152771 277.374390,335.506744 277.655701,332.911285 
	C277.759521,331.953369 278.961639,331.114532 279.662842,330.221405 
	C280.538727,331.158600 282.145905,332.074860 282.173431,333.036346 
	C282.373260,340.019043 282.407196,347.017548 282.101624,353.993866 
	C282.044006,355.309326 280.233795,356.548035 279.232300,357.822174 
	C278.747559,357.528381 278.262817,357.234619 277.778076,356.940826 
	C277.778076,353.346313 277.778076,349.751831 277.778076,345.775543 
	C274.217926,345.775543 271.011780,345.775543 267.099915,345.775543 
	C267.390198,349.199127 267.662872,352.414886 267.805603,356.029297 
z"/>
<path fill="#E6E6E6" opacity="1.000000" stroke="none" 
	d="
M108.163528,345.436462 
	C106.444969,346.771027 104.542343,347.927307 104.133202,349.477661 
	C103.525879,351.779053 103.975952,354.359497 103.975952,356.966980 
	C102.243744,356.966980 100.833565,356.966980 99.486839,356.966980 
	C99.486839,348.617859 99.410316,340.559021 99.529198,332.503052 
	C99.569664,329.760651 100.481346,329.668762 104.526520,331.708099 
	C104.526520,334.849091 104.526520,337.912781 104.526520,341.006683 
	C107.291473,341.006683 110.043861,341.006683 113.417053,341.006683 
	C113.417053,338.110138 113.126312,335.498383 113.552170,333.009216 
	C113.736938,331.929260 115.397011,331.101685 116.386978,330.159454 
	C117.249565,331.141663 118.829948,332.102722 118.859573,333.109436 
	C119.069565,340.246399 119.128403,347.400635 118.789688,354.528198 
	C118.733955,355.700806 116.488129,356.769379 115.254478,357.886017 
	C114.878670,357.561401 114.502869,357.236755 114.127060,356.912109 
	C114.127060,353.316284 114.127060,349.720459 114.127060,345.685913 
	C112.134346,345.594452 110.390968,345.514435 108.163528,345.436462 
z"/>
<path fill="#E7E7E7" opacity="1.000000" stroke="none" 
	d="
M243.878143,356.586487 
	C241.959930,356.794342 240.508957,356.995575 237.957764,357.349426 
	C237.957764,354.238678 237.957886,351.378967 237.957733,348.519287 
	C237.957504,344.186554 238.286255,339.821747 237.868561,335.529633 
	C237.406754,330.784424 239.599319,329.640533 243.655228,330.164398 
	C246.103241,330.480560 248.612671,330.593384 250.976074,331.234314 
	C255.557953,332.476868 256.283722,337.183929 254.353088,343.111816 
	C254.572449,346.452454 255.804749,350.150726 254.780426,353.052307 
	C253.127426,357.734741 248.224289,356.432861 243.878143,356.586487 
M250.906998,347.234406 
	C248.332245,346.454651 245.757492,345.674866 242.794220,344.777405 
	C242.794220,348.212402 242.794220,350.439697 242.794220,352.908936 
	C247.096878,353.400116 250.623093,353.217041 250.906998,347.234406 
M250.201447,336.781555 
	C248.632095,332.658905 245.576553,334.594421 242.955658,334.674683 
	C242.955658,337.039581 242.955658,339.083954 242.955658,341.339905 
	C246.157303,341.070465 249.787674,342.568481 250.201447,336.781555 
z"/>
<path fill="#F6F6F6" opacity="1.000000" stroke="none" 
	d="
M290.029327,128.995743 
	C286.841583,132.407074 283.887390,135.550400 280.619598,139.027405 
	C274.899506,132.981903 269.580994,127.360802 263.751953,121.200134 
	C275.182373,121.200134 286.300751,121.200134 298.286774,121.200134 
	C295.311340,123.991501 292.787109,126.359619 290.029327,128.995743 
z"/>
<path fill="#F6F6F6" opacity="1.000000" stroke="none" 
	d="
M286.681213,251.079803 
	C288.898560,253.106064 290.836151,254.884201 292.684235,256.580200 
	C291.453735,257.596130 289.668823,258.496368 288.720398,259.944427 
	C281.746918,270.591888 271.377899,270.119019 260.390991,268.742065 
	C267.180939,262.564667 273.923248,256.621857 280.420044,250.421768 
	C282.873718,248.080139 284.564209,248.391403 286.681213,251.079803 
z"/>
<path fill="#EDEDED" opacity="1.000000" stroke="none" 
	d="
M394.953583,355.674835 
	C394.910675,351.596405 394.968536,347.891632 395.059753,344.187622 
	C395.088318,343.028687 395.249268,341.872986 395.277527,340.714050 
	C395.518005,330.856171 395.528595,330.599335 405.096771,331.180267 
	C407.600769,331.332306 411.719940,333.307587 412.022400,334.996307 
	C412.548553,337.933472 410.761353,341.324921 409.750916,344.463715 
	C409.549194,345.090332 408.482483,345.438507 407.443817,346.179688 
	C409.403687,349.505951 411.368958,352.841339 413.389191,356.269989 
	C409.375244,357.289154 409.351135,357.307281 405.973206,352.819183 
	C404.255127,350.536438 402.641693,348.174896 400.027222,346.139435 
	C400.027222,348.671722 400.083374,351.205505 400.014343,353.735901 
	C399.905731,357.717041 398.137238,358.316498 394.953583,355.674835 
M400.526154,342.678558 
	C401.962952,342.486145 403.697632,342.728333 404.764862,341.996765 
	C406.264923,340.968506 407.269409,339.217346 408.485809,337.775360 
	C407.082245,336.600555 405.831726,335.080750 404.223480,334.367462 
	C403.075897,333.858459 401.447754,334.433105 400.105194,334.519592 
	C400.105194,337.276459 400.105194,339.602020 400.526154,342.678558 
z"/>
<path fill="#E7E7E7" opacity="1.000000" stroke="none" 
	d="
M215.655365,353.641113 
	C210.389359,355.159882 205.377075,356.397888 199.522339,357.843964 
	C199.522339,347.839447 199.522339,339.314240 199.522339,330.158600 
	C205.605331,331.121216 212.466629,329.049683 217.024994,335.150848 
	C220.420166,339.695129 219.690506,348.012360 215.655365,353.641113 
M205.275208,353.015289 
	C206.382950,352.728607 207.502792,352.481628 208.596359,352.148407 
	C213.594803,350.625427 215.754944,346.014008 214.228012,340.174591 
	C213.029068,335.589569 209.870270,333.896698 204.455078,334.880249 
	C204.455078,340.832764 204.455078,346.769653 205.275208,353.015289 
z"/>
<path fill="#EBEBEB" opacity="1.000000" stroke="none" 
	d="
M149.998245,353.519012 
	C150.095734,346.773285 150.647766,340.437805 150.135757,334.189545 
	C149.764984,329.664612 152.321838,330.103546 154.954987,330.150543 
	C156.372665,330.175842 157.787323,330.966125 159.193268,330.936249 
	C162.906418,330.857391 166.157990,331.245056 167.426178,335.538025 
	C168.619858,339.578766 167.458191,342.642487 163.951462,344.890381 
	C163.535751,345.156860 163.151138,345.471863 162.449112,345.986511 
	C164.517075,349.521698 166.468018,352.856842 168.616913,356.530396 
	C165.735260,357.874451 163.774765,357.681213 162.400665,354.814545 
	C161.331924,352.584961 160.263977,350.323853 158.885818,348.286316 
	C158.151886,347.201263 156.760330,346.561035 154.781845,345.041138 
	C154.781845,349.035065 155.016968,351.701447 154.669250,354.289490 
	C154.524673,355.365631 153.136597,356.274719 152.313965,357.259766 
	C151.541656,356.162048 150.769363,355.064331 149.998245,353.519012 
M162.891617,336.055908 
	C160.426346,335.286774 157.961060,334.517639 155.137146,333.636627 
	C155.137146,337.414337 155.137146,340.059265 155.137146,343.382690 
	C158.343613,341.082062 164.586670,343.997467 162.891617,336.055908 
z"/>
<path fill="#EDEDED" opacity="1.000000" stroke="none" 
	d="
M343.917114,354.448486 
	C343.989258,346.535950 343.989258,339.063416 343.989258,331.258362 
	C348.352905,331.258362 352.547974,330.679260 356.503601,331.405182 
	C361.430725,332.309357 364.264252,337.752014 364.242065,344.409332 
	C364.224640,349.641968 360.992279,354.807617 356.382507,355.885986 
	C352.702393,356.746948 348.832581,356.843567 345.034515,357.077026 
	C344.684174,357.098572 344.243652,355.652863 343.917114,354.448486 
M348.757080,341.589722 
	C348.757080,345.353699 348.757080,349.117645 348.757080,352.873627 
	C356.788422,352.871338 359.693329,349.554138 359.018829,341.738190 
	C358.534302,336.123627 355.346436,333.864838 348.758942,334.859894 
	C348.758942,336.734253 348.758942,338.682648 348.757080,341.589722 
z"/>
<path fill="#EAEAEA" opacity="1.000000" stroke="none" 
	d="
M294.301147,351.713745 
	C292.773865,354.957428 292.229797,358.903320 287.339874,356.758026 
	C290.310913,348.807312 293.220337,340.827606 296.328735,332.926178 
	C296.762421,331.823853 298.055084,330.808624 299.190918,330.351990 
	C299.671814,330.158630 301.232727,331.354004 301.524811,332.189972 
	C304.337341,340.240753 306.983856,348.349579 310.160065,357.890106 
	C307.778412,356.925964 305.369995,356.600189 305.179230,355.766754 
	C304.070679,350.923889 300.967712,350.599426 297.023560,351.410278 
	C296.235168,351.572357 295.378632,351.402710 294.301147,351.713745 
M297.063354,347.253815 
	C298.490845,347.253815 299.918335,347.253815 301.771240,347.253815 
	C300.834961,344.337311 300.090149,342.017151 299.345306,339.696991 
	C298.983582,339.690796 298.621826,339.684601 298.260101,339.678375 
	C297.595551,342.081421 296.931000,344.484467 297.063354,347.253815 
z"/>
<path fill="#EAEAEA" opacity="1.000000" stroke="none" 
	d="
M184.981781,331.205505 
	C187.986526,339.648315 190.655273,347.900116 193.421555,356.453522 
	C191.016937,358.122620 189.054459,357.925934 188.291656,354.540436 
	C187.559448,351.290680 185.269745,351.121124 182.650299,351.155640 
	C180.110168,351.189087 177.898682,351.066589 177.008896,354.484467 
	C176.646378,355.877014 174.169968,356.719238 172.655350,357.811859 
	C172.286743,357.384155 171.918152,356.956451 171.549545,356.528748 
	C174.569229,348.271423 177.511627,339.983459 180.751068,331.813263 
	C181.018661,331.138336 183.300049,331.261902 184.981781,331.205505 
M182.418518,340.521057 
	C181.637512,342.601715 180.856522,344.682373 179.967316,347.051331 
	C182.000732,347.051331 183.728516,347.051331 186.009399,347.051331 
	C184.985840,344.687500 184.121506,342.691406 182.418518,340.521057 
z"/>
<path fill="#EAEAEA" opacity="1.000000" stroke="none" 
	d="
M368.703735,356.935913 
	C371.191681,348.591675 373.953979,340.386688 376.893036,332.245514 
	C377.201385,331.391418 378.483643,330.610687 379.449554,330.390594 
	C379.926575,330.281921 381.026581,331.413910 381.310669,332.182007 
	C384.270325,340.184479 387.121307,348.227081 390.534546,357.741821 
	C387.966644,356.863037 385.337891,356.450165 385.302185,355.875977 
	C384.940674,350.066956 380.720062,351.467346 377.334808,351.307007 
	C376.514557,351.268188 375.686157,351.401520 374.625031,351.471191 
	C373.427155,353.857300 373.851624,358.186005 368.703735,356.935913 
M376.747314,345.898254 
	C378.333801,346.444885 379.920319,346.991547 382.493958,347.878326 
	C381.270660,344.198303 380.526337,341.959137 379.403015,338.579742 
	C378.305115,341.481628 377.630371,343.265106 376.747314,345.898254 
z"/>
<path fill="#EBEBEB" opacity="1.000000" stroke="none" 
	d="
M131.166962,332.170319 
	C133.429993,328.938934 134.983597,329.749084 135.996323,332.662201 
	C138.749786,340.582611 141.429123,348.528809 144.258560,356.818451 
	C141.556778,357.355957 139.519913,357.890106 138.770447,354.112244 
	C138.518814,352.843842 136.220032,351.327942 134.692291,351.116913 
	C132.296249,350.785828 129.149292,350.129578 128.059494,353.613708 
	C127.224213,356.284180 126.110481,358.180450 122.211136,356.743317 
	C125.163429,348.648102 128.102753,340.588501 131.166962,332.170319 
M134.245972,340.556763 
	C132.948349,342.470062 131.650742,344.383392 129.852051,347.035522 
	C132.839462,347.035522 134.396881,347.035522 136.260681,347.035522 
	C135.679321,344.896057 135.180573,343.060577 134.245972,340.556763 
z"/>
<path fill="#E6E6E6" opacity="1.000000" stroke="none" 
	d="
M82.931152,340.246246 
	C85.096947,341.109406 87.075485,341.494537 88.843719,342.326599 
	C91.949654,343.788086 94.333145,346.475464 93.174828,349.797607 
	C92.267960,352.398590 89.926643,355.470673 87.513260,356.321747 
	C84.690720,357.317078 81.062103,356.325897 77.869087,355.733521 
	C77.182297,355.606079 76.862740,353.499207 76.281059,352.076813 
	C80.261589,352.076813 83.269852,352.311188 86.203598,351.946350 
	C87.195267,351.823029 88.757034,350.131104 88.697235,349.248230 
	C88.620865,348.120483 87.338982,346.838257 86.255676,346.083069 
	C85.230240,345.368225 83.775330,345.290405 82.534622,344.859497 
	C78.520126,343.465271 75.975578,340.647583 76.397636,336.385040 
	C76.824066,332.078369 80.321335,330.402161 84.189934,330.280334 
	C86.887863,330.195374 89.614395,331.019165 93.037766,331.546356 
	C92.325104,333.212402 91.917793,334.164612 91.830582,334.368500 
	C88.121780,334.794312 84.893974,335.164917 81.666168,335.535522 
	C81.993851,337.013519 82.321526,338.491486 82.931152,340.246246 
z"/>
<path fill="#2D2D2D" opacity="1.000000" stroke="none" 
	d="
M223.960907,236.308670 
	C224.019745,215.512741 224.019745,194.892487 224.019745,174.272247 
	C224.402557,174.105133 224.785355,173.938034 225.168167,173.770935 
	C225.806458,175.166885 226.980698,176.555893 226.998886,177.959885 
	C227.155228,190.027847 227.107376,202.098495 227.109985,214.168350 
	C227.110855,218.159653 227.113464,222.151428 227.053894,226.142075 
	C227.014542,228.777649 228.176254,229.827377 231.412048,229.145874 
	C232.054565,229.085175 232.354507,229.197037 232.354523,229.197052 
	C229.773666,231.693573 227.192810,234.190094 224.285309,236.768585 
	C223.958664,236.850540 223.902084,236.484344 223.960907,236.308670 
z"/>
<path fill="#EAEAEA" opacity="1.000000" stroke="none" 
	d="
M424.689819,331.896790 
	C424.894318,339.259888 424.779510,346.234619 424.998596,353.198822 
	C425.105499,356.597321 423.847809,357.797974 420.105194,357.010132 
	C420.105194,348.998718 419.901855,340.835358 420.210968,332.691467 
	C420.325531,329.672943 422.319977,329.218201 424.689819,331.896790 
z"/>
<path fill="#050505" opacity="1.000000" stroke="none" 
	d="
M257.004608,206.010788 
	C262.762177,211.772919 268.115387,217.446915 273.843994,222.712463 
	C275.569916,224.298859 278.285034,225.391052 280.641418,225.589691 
	C285.727600,226.018448 290.874908,225.721542 296.419861,225.721542 
	C296.419861,228.685745 296.446350,231.281769 296.414825,233.877075 
	C296.325378,241.250015 295.780670,241.677414 288.357910,241.092743 
	C285.865143,240.896393 283.133667,241.660553 280.890991,240.886139 
	C278.127228,239.931763 275.366364,238.222458 273.294342,236.149597 
	C266.737000,229.589493 260.482880,222.725021 254.158264,215.934677 
	C253.027390,214.720520 252.119644,213.298538 249.977524,210.488297 
	C246.910614,214.872833 244.500732,218.318054 242.090866,221.763275 
	C241.540985,221.366486 240.991119,220.969696 240.441238,220.572891 
	C240.441238,210.453003 240.441238,200.333115 240.441238,189.201965 
	C246.196060,195.048935 251.470154,200.407471 257.004608,206.010788 
z"/>
<path fill="#090909" opacity="1.000000" stroke="none" 
	d="
M262.209656,232.797302 
	C265.276459,235.572479 268.063812,238.125717 271.174194,240.974792 
	C265.290222,246.977112 259.920013,252.455338 254.346344,258.141113 
	C247.257172,250.732437 240.571609,243.745575 233.767715,236.635025 
	C239.177231,231.492538 244.647522,226.292267 250.597046,220.636444 
	C254.045776,224.269516 257.987976,228.422440 262.209656,232.797302 
M249.773483,243.631409 
	C252.245941,241.688721 254.718399,239.746033 257.464417,237.588394 
	C255.124786,234.771729 253.170578,232.419052 250.318085,228.984940 
	C248.102112,232.119400 246.151505,234.878510 243.552429,238.554840 
	C244.909195,239.669052 247.066422,241.440613 249.773483,243.631409 
z"/>
<path fill="#232324" opacity="1.000000" stroke="none" 
	d="
M232.677353,229.077057 
	C232.354507,229.197037 232.054565,229.085175 231.898941,229.110596 
	C231.743317,213.373688 231.743317,197.611359 231.743317,181.849030 
	C232.044434,181.631042 232.345551,181.413055 232.646683,181.195068 
	C233.538513,183.064957 235.165085,184.920166 235.202805,186.807144 
	C235.445282,198.937927 235.442444,211.077362 235.243362,223.209412 
	C235.211731,225.137070 233.783020,227.041779 232.677353,229.077057 
z"/>
<path fill="#141414" opacity="1.000000" stroke="none" 
	d="
M229.838303,249.066650 
	C228.087280,247.486862 226.605743,246.152878 224.901733,244.618591 
	C226.552414,243.094498 227.848236,241.898056 228.543564,241.256042 
	C235.294449,247.589111 242.013504,253.638351 248.343903,260.070099 
	C249.454910,261.198944 248.935867,263.932159 249.169632,265.924408 
	C248.687286,266.218018 248.204926,266.511597 247.722580,266.805176 
	C241.850983,260.974274 235.979370,255.143356 229.838303,249.066650 
z"/>
<path fill="#040404" opacity="1.000000" stroke="none" 
	d="
M259.715607,165.988480 
	C263.515472,162.698120 266.301727,159.003021 264.368103,153.212906 
	C260.500702,157.710052 256.611145,162.232986 252.794144,166.671509 
	C245.128540,158.631088 238.932571,152.132172 232.223282,145.094849 
	C237.528732,139.995605 243.748352,134.017746 249.952347,128.054886 
	C258.105225,136.450821 266.380280,144.972595 275.000885,153.850220 
	C271.285492,157.401016 266.706848,161.776840 261.359253,166.107178 
	C260.298737,166.037292 260.007172,166.012894 259.715607,165.988480 
M251.617325,150.848251 
	C253.479996,148.652298 255.342682,146.456329 257.214722,144.249344 
	C255.041870,141.897217 253.275925,139.985565 251.490387,138.052719 
	C248.896988,140.456650 246.332153,142.834106 243.497253,145.461899 
	C246.379471,147.657928 248.717743,149.439529 251.617325,150.848251 
z"/>
<path fill="#010101" opacity="1.000000" stroke="none" 
	d="
M260.583649,167.510040 
	C259.416351,168.553040 258.249023,169.596039 257.081726,170.639038 
	C256.724426,170.277527 256.367126,169.916031 256.009827,169.554520 
	C256.984589,168.526489 257.959351,167.498459 259.491150,166.643219 
	C260.226624,167.047333 260.405121,167.278687 260.583649,167.510040 
z"/>
<path fill="#010101" opacity="1.000000" stroke="none" 
	d="
M259.708252,166.019043 
	C260.007172,166.012894 260.298737,166.037292 261.027222,166.104034 
	C261.324219,166.492599 261.184296,166.838791 260.814026,167.347504 
	C260.405121,167.278687 260.226624,167.047333 259.843445,166.427399 
	C259.638733,166.038803 259.700928,166.049622 259.708252,166.019043 
z"/>
<path fill="#141414" opacity="1.000000" stroke="none" 
	d="
M251.049011,347.584473 
	C250.623093,353.217041 247.096878,353.400116 242.794220,352.908936 
	C242.794220,350.439697 242.794220,348.212402 242.794220,344.777405 
	C245.757492,345.674866 248.332245,346.454651 251.049011,347.584473 
z"/>
<path fill="#141414" opacity="1.000000" stroke="none" 
	d="
M250.207397,337.221741 
	C249.787674,342.568481 246.157303,341.070465 242.955658,341.339905 
	C242.955658,339.083954 242.955658,337.039581 242.955658,334.674683 
	C245.576553,334.594421 248.632095,332.658905 250.207397,337.221741 
z"/>
<path fill="#141414" opacity="1.000000" stroke="none" 
	d="
M400.315674,342.303101 
	C400.105194,339.602020 400.105194,337.276459 400.105194,334.519592 
	C401.447754,334.433105 403.075897,333.858459 404.223480,334.367462 
	C405.831726,335.080750 407.082245,336.600555 408.485809,337.775360 
	C407.269409,339.217346 406.264923,340.968506 404.764862,341.996765 
	C403.697632,342.728333 401.962952,342.486145 400.315674,342.303101 
z"/>
<path fill="#050505" opacity="1.000000" stroke="none" 
	d="
M204.865143,352.860931 
	C204.455078,346.769653 204.455078,340.832764 204.455078,334.880249 
	C209.870270,333.896698 213.029068,335.589569 214.228012,340.174591 
	C215.754944,346.014008 213.594803,350.625427 208.596359,352.148407 
	C207.502792,352.481628 206.382950,352.728607 204.865143,352.860931 
z"/>
<path fill="#141414" opacity="1.000000" stroke="none" 
	d="
M163.007233,336.473267 
	C164.586670,343.997467 158.343613,341.082062 155.137146,343.382690 
	C155.137146,340.059265 155.137146,337.414337 155.137146,333.636627 
	C157.961060,334.517639 160.426346,335.286774 163.007233,336.473267 
z"/>
<path fill="#090909" opacity="1.000000" stroke="none" 
	d="
M348.757996,341.110382 
	C348.758942,338.682648 348.758942,336.734253 348.758942,334.859894 
	C355.346436,333.864838 358.534302,336.123627 359.018829,341.738190 
	C359.693329,349.554138 356.788422,352.871338 348.757080,352.873627 
	C348.757080,349.117645 348.757080,345.353699 348.757996,341.110382 
z"/>
<path fill="#141414" opacity="1.000000" stroke="none" 
	d="
M296.664917,347.070679 
	C296.931000,344.484467 297.595551,342.081421 298.260101,339.678375 
	C298.621826,339.684601 298.983582,339.690796 299.345306,339.696991 
	C300.090149,342.017151 300.834961,344.337311 301.771240,347.253815 
	C299.918335,347.253815 298.490845,347.253815 296.664917,347.070679 
z"/>
<path fill="#141414" opacity="1.000000" stroke="none" 
	d="
M182.837845,340.608185 
	C184.121506,342.691406 184.985840,344.687500 186.009399,347.051331 
	C183.728516,347.051331 182.000732,347.051331 179.967316,347.051331 
	C180.856522,344.682373 181.637512,342.601715 182.837845,340.608185 
z"/>
<path fill="#232324" opacity="1.000000" stroke="none" 
	d="
M376.851471,345.473419 
	C377.630371,343.265106 378.305115,341.481628 379.403015,338.579742 
	C380.526337,341.959137 381.270660,344.198303 382.493958,347.878326 
	C379.920319,346.991547 378.333801,346.444885 376.851471,345.473419 
z"/>
<path fill="#141414" opacity="1.000000" stroke="none" 
	d="
M134.463898,340.890930 
	C135.180573,343.060577 135.679321,344.896057 136.260681,347.035522 
	C134.396881,347.035522 132.839462,347.035522 129.852051,347.035522 
	C131.650742,344.383392 132.948349,342.470062 134.463898,340.890930 
z"/>
<path fill="#EDEDED" opacity="1.000000" stroke="none" 
	d="
M249.498566,243.421783 
	C247.066422,241.440613 244.909195,239.669052 243.552429,238.554840 
	C246.151505,234.878510 248.102112,232.119400 250.318085,228.984940 
	C253.170578,232.419052 255.124786,234.771729 257.464417,237.588394 
	C254.718399,239.746033 252.245941,241.688721 249.498566,243.421783 
z"/>
<path fill="#E7E7E7" opacity="1.000000" stroke="none" 
	d="
M251.336670,151.034698 
	C248.717743,149.439529 246.379471,147.657928 243.497253,145.461899 
	C246.332153,142.834106 248.896988,140.456650 251.490387,138.052719 
	C253.275925,139.985565 255.041870,141.897217 257.214722,144.249344 
	C255.342682,146.456329 253.479996,148.652298 251.336670,151.034698 
z"/>
</svg>